<svg xmlns="http://www.w3.org/2000/svg" viewBox="0 0 64 64" role="img" aria-label="BeepBite mark">
  <rect width="64" height="64" rx="15" fill="#141416"/>
  <g transform="translate(9.5 13) scale(0.088)" fill="none" stroke="#FF6B3D" stroke-linecap="round">
    <path stroke-width="25.6" d="m 63.222836,230.4911 c 0,-153.964001 166.666404,-250.187996 300.002404,-173.212001 61.88,35.736 100,101.752001 100,173.212001"/>
    <path stroke-width="19.2" d="m 113.16892,233.92198 c 0,-115.473 124.9998,-187.641003 225.0018,-129.909 46.41,26.802 75,76.314 75,129.909"/>
    <path stroke-width="12.96" d="m 160.57569,236.47063 c 0,-77.94427 84.37486,-126.65766 151.87621,-87.68857 31.32675,18.09135 50.625,51.51195 50.625,87.68857"/>
  </g>
  <g transform="translate(9.5 13) scale(0.088)" fill="#FF6B3D">
    <path d="m 88.704302,299.92929 c -8.835,0 -16,7.163 -16,16 v 32 c -0.015,8.4745 6.585,15.4915 15.04,16 H 440.7078 c 8.835,0 16,-7.1635 16,-16 v -32 c 0,-8.837 -7.165,-16 -16,-16 z m 368.003498,-29.28 c 19.185,6.7835 32.01,24.929 32,45.28 v 32 c 0,17.96 -10.025,34.418 -25.985,42.656 l -26.335,70.144 c -7.03,18.725 -24.93,31.131 -44.93,31.136 H 137.9543 c -20,-0.005 -37.9,-12.411 -44.929998,-31.136 l -26.3,-70.112 c -15.985,-8.2345 -26.025,-24.7095 -26.02,-42.688 v -32 c -0.01,-20.351 12.815,-38.4965 32,-45.28 v -0.0149 l 382.650928,-0.45086 z m -192,125.28 H 102.8843 l 20.095,53.568 c 2.345,6.2375 8.311,10.368 14.975,10.368 h 253.5035 c 6.665,0 12.63,-4.1305 14.975,-10.368 l 20.095,-53.568 z"/>
    <path stroke="#FF6B3D" stroke-width="10" d="M 50.045196,243.2576 H 480.16337"/>
  </g>
</svg>
